<?xml version="1.0" encoding="utf-8"?>
<!-- Generator: Adobe Illustrator 25.1.0, SVG Export Plug-In . SVG Version: 6.00 Build 0)  -->
<svg version="1.1" id="Capa_1" xmlns="http://www.w3.org/2000/svg" xmlns:xlink="http://www.w3.org/1999/xlink" x="0px" y="0px"
	 viewBox="0 0 786.8 435.3" style="enable-background:new 0 0 786.8 435.3;" xml:space="preserve">
<style type="text/css">
	.st0{display:none;opacity:5.000000e-02;fill:#009C86;}
	.st1{display:none;fill:#2F2E41;}
	.st2{fill:#009C86;}
	.st3{fill:#2F2E41;}
	.st4{fill:#FFFFFF;}
	.st5{fill:#FFB6B6;}
	.st6{fill:#E6E6E6;}
	.st7{opacity:0.2;enable-background:new    ;}
</style>
<circle class="st0" cx="458.3" cy="-85.8" r="26.7"/>
<path class="st0" d="M523.1,206.4c26.7-18.8,39.5-50.5,31.5-80.7c-0.2-0.8-0.4-1.5-0.6-2.2c-5.3-17.9-18.4-35-37.5-40.7
	c-16-4.8-33.6-1.1-50.3-3c-32.9-3.8-58.3-28.3-76.3-54.1C372-0.1,358.2-28.9,334.4-50.2c-39.3-35.1-103.3-42.6-152-19.8
	C133.7-47.2,102.7,3.5,104,54c1.3,50.5,33.7,98.7,80.8,124.3c17.3,9.4,37.3,16.1,57.2,13.7c17.3-2,32.9-10.6,50.1-13.1
	c27-4,53.8,7.3,77.2,20.5c23.4,13.2,45.9,28.8,72.5,34.9C467.5,240.1,499.4,223.1,523.1,206.4z"/>
<path class="st1" d="M608.4-81.7c-0.9-0.6-1.8-1.1-2.6-1.7c-25.1-16.1-52.1-29.2-80.3-38.9L519-32.1h-41.5v-103.4
	c-2.6-0.5-5.2-1.1-7.9-1.5v104.9h-49.3c-56.5,0-102.3-45.8-102.3-102.3v0c-2.6,0.6-5.3,1.2-7.9,1.8v100.4h-40.1l-6.2-86
	c-29,11.1-56.5,25.7-81.9,43.5c-0.4,0.3-0.9,0.6-1.3,0.9c-2.2,1.6-4.4,3.1-6.6,4.7v344.2h118.3l-2.1-29l-11.5-159h231.6l-11.5,159
	l-2.1,29h117V-78.2C611.9-79.4,610.2-80.5,608.4-81.7z M310.2,61.1h-33.4l-6.2-85.3h39.6V61.1z M469.6,61.1h-56.1v-1.7
	c0-3.4-2.8-6.2-6.2-6.2c0,0,0,0,0,0H383c-3.4,0-6.2,2.8-6.2,6.2c0,0,0,0,0,0v1.7h-58.7v-85.3h151.5L469.6,61.1z M477.5,61.1v-85.3
	h40.9l-6.2,85.3H477.5z"/>
<path class="st2" d="M0,274.3c8.7,10.3,18.1,20,28.1,29l730.6,1c10-9,19.4-18.7,28.1-29L0,274.3z"/>
<path class="st2" d="M495.4,181.6v85.7c0,2.3,1.8,4.1,4.1,4.1h127c2.3,0,4.1-1.8,4.1-4.1v-85.7c0-2.3-1.8-4.1-4.1-4.1h-127
	C497.3,177.5,495.4,179.3,495.4,181.6z"/>
<path class="st3" d="M498.4,182.7v83.6c0,1.2,1,2.2,2.2,2.2h124.9c1.2,0,2.2-1,2.2-2.2v-83.6c0-1.2-1-2.2-2.2-2.2H500.6
	C499.4,180.5,498.4,181.4,498.4,182.7z"/>
<path class="st3" d="M492.8,284c0.5,0.6,1.2,0.9,1.9,0.9h136c1.4,0,2.5-1.1,2.5-2.5c0-0.2,0-0.3-0.1-0.5l-2.1-10
	c-0.2-0.8-0.8-1.5-1.6-1.8c-0.3-0.1-0.6-0.2-0.9-0.2H496.8c-0.3,0-0.6,0.1-0.9,0.2c-0.8,0.3-1.4,1-1.6,1.8l-2.1,10
	C492.1,282.7,492.3,283.4,492.8,284z"/>
<path class="st2" d="M627.1,274.2h-3.2c-0.3,0-0.5-0.2-0.5-0.5v-1.5c0-0.3,0.2-0.5,0.5-0.5h3.2c0.3,0,0.5,0.2,0.5,0.5v1.5
	C627.6,274,627.4,274.2,627.1,274.2z"/>
<path class="st2" d="M618.8,274.2h-3.2c-0.3,0-0.5-0.2-0.5-0.5v-1.5c0-0.3,0.2-0.5,0.5-0.5h3.2c0.3,0,0.5,0.2,0.5,0.5v1.5
	C619.3,274,619,274.2,618.8,274.2z"/>
<path class="st2" d="M610.4,274.2h-3.2c-0.3,0-0.5-0.2-0.5-0.5v-1.5c0-0.3,0.2-0.5,0.5-0.5h3.2c0.3,0,0.5,0.2,0.5,0.5v1.5
	C610.9,274,610.7,274.2,610.4,274.2z"/>
<path class="st2" d="M602,274.2h-3.2c-0.3,0-0.5-0.2-0.5-0.5v-1.5c0-0.3,0.2-0.5,0.5-0.5h3.2c0.3,0,0.5,0.2,0.5,0.5v1.5
	C602.5,274,602.3,274.2,602,274.2z"/>
<path class="st2" d="M593.6,274.2h-3.2c-0.3,0-0.5-0.2-0.5-0.5v-1.5c0-0.3,0.2-0.5,0.5-0.5h3.2c0.3,0,0.5,0.2,0.5,0.5v1.5
	C594.1,274,593.9,274.2,593.6,274.2z"/>
<path class="st2" d="M585.3,274.2H582c-0.3,0-0.5-0.2-0.5-0.5v-1.5c0-0.3,0.2-0.5,0.5-0.5h3.2c0.3,0,0.5,0.2,0.5,0.5v1.5
	C585.7,274,585.5,274.2,585.3,274.2z"/>
<path class="st2" d="M576.9,274.2h-3.2c-0.3,0-0.5-0.2-0.5-0.5v-1.5c0-0.3,0.2-0.5,0.5-0.5h3.2c0.3,0,0.5,0.2,0.5,0.5v1.5
	C577.4,274,577.2,274.2,576.9,274.2z"/>
<path class="st2" d="M568.5,274.2h-3.2c-0.3,0-0.5-0.2-0.5-0.5v-1.5c0-0.3,0.2-0.5,0.5-0.5h3.2c0.3,0,0.5,0.2,0.5,0.5v1.5
	C569,274,568.8,274.2,568.5,274.2z"/>
<path class="st2" d="M560.1,274.2h-3.2c-0.3,0-0.5-0.2-0.5-0.5v-1.5c0-0.3,0.2-0.5,0.5-0.5h3.2c0.3,0,0.5,0.2,0.5,0.5v1.5
	C560.6,274,560.4,274.2,560.1,274.2z"/>
<path class="st2" d="M551.8,274.2h-3.2c-0.3,0-0.5-0.2-0.5-0.5v-1.5c0-0.3,0.2-0.5,0.5-0.5h3.2c0.3,0,0.5,0.2,0.5,0.5v1.5
	C552.2,274,552,274.2,551.8,274.2z"/>
<path class="st2" d="M543.4,274.2h-3.2c-0.3,0-0.5-0.2-0.5-0.5v-1.5c0-0.3,0.2-0.5,0.5-0.5h3.2c0.3,0,0.5,0.2,0.5,0.5v1.5
	C543.9,274,543.6,274.2,543.4,274.2z"/>
<path class="st2" d="M535,274.2h-3.2c-0.3,0-0.5-0.2-0.5-0.5v-1.5c0-0.3,0.2-0.5,0.5-0.5h3.2c0.3,0,0.5,0.2,0.5,0.5v1.5
	C535.5,274,535.3,274.2,535,274.2z"/>
<path class="st2" d="M526.6,274.2h-3.2c-0.3,0-0.5-0.2-0.5-0.5v-1.5c0-0.3,0.2-0.5,0.5-0.5h3.2c0.3,0,0.5,0.2,0.5,0.5v1.5
	C527.1,274,526.9,274.2,526.6,274.2z"/>
<path class="st2" d="M518.2,274.2H515c-0.3,0-0.5-0.2-0.5-0.5v-1.5c0-0.3,0.2-0.5,0.5-0.5h3.2c0.3,0,0.5,0.2,0.5,0.5v1.5
	C518.7,274,518.5,274.2,518.2,274.2z"/>
<path class="st2" d="M509.9,274.2h-3.2c-0.3,0-0.5-0.2-0.5-0.5v-1.5c0-0.3,0.2-0.5,0.5-0.5h3.2c0.3,0,0.5,0.2,0.5,0.5v1.5
	C510.4,274,510.1,274.2,509.9,274.2z"/>
<path class="st2" d="M501.5,274.2h-3.2c-0.3,0-0.5-0.2-0.5-0.5v-1.5c0-0.3,0.2-0.5,0.5-0.5h3.2c0.3,0,0.5,0.2,0.5,0.5v1.5
	C502,274,501.8,274.2,501.5,274.2z"/>
<path class="st2" d="M627.2,278.4H624c-0.3,0-0.5-0.2-0.5-0.5v-1.5c0-0.3,0.2-0.5,0.5-0.5h3.2c0.3,0,0.5,0.2,0.5,0.5v1.5
	C627.7,278.2,627.5,278.4,627.2,278.4z"/>
<path class="st2" d="M618.9,278.4h-3.2c-0.3,0-0.5-0.2-0.5-0.5v-1.5c0-0.3,0.2-0.5,0.5-0.5h3.2c0.3,0,0.5,0.2,0.5,0.5v1.5
	C619.4,278.2,619.1,278.4,618.9,278.4z"/>
<path class="st2" d="M610.5,278.4h-3.2c-0.3,0-0.5-0.2-0.5-0.5v-1.5c0-0.3,0.2-0.5,0.5-0.5h3.2c0.3,0,0.5,0.2,0.5,0.5v1.5
	C611,278.2,610.8,278.4,610.5,278.4z"/>
<path class="st2" d="M602.1,278.4h-3.2c-0.3,0-0.5-0.2-0.5-0.5v-1.5c0-0.3,0.2-0.5,0.5-0.5h3.2c0.3,0,0.5,0.2,0.5,0.5v1.5
	C602.6,278.2,602.4,278.4,602.1,278.4z"/>
<path class="st2" d="M593.7,278.4h-3.2c-0.3,0-0.5-0.2-0.5-0.5v-1.5c0-0.3,0.2-0.5,0.5-0.5h3.2c0.3,0,0.5,0.2,0.5,0.5v1.5
	C594.2,278.2,594,278.4,593.7,278.4z"/>
<path class="st2" d="M585.4,278.4h-3.2c-0.3,0-0.5-0.2-0.5-0.5v-1.5c0-0.3,0.2-0.5,0.5-0.5h3.2c0.3,0,0.5,0.2,0.5,0.5v1.5
	C585.8,278.2,585.6,278.4,585.4,278.4z"/>
<path class="st2" d="M577,278.4h-3.2c-0.3,0-0.5-0.2-0.5-0.5v-1.5c0-0.3,0.2-0.5,0.5-0.5h3.2c0.3,0,0.5,0.2,0.5,0.5v1.5
	C577.5,278.2,577.3,278.4,577,278.4z"/>
<path class="st2" d="M568.6,278.4h-3.2c-0.3,0-0.5-0.2-0.5-0.5v-1.5c0-0.3,0.2-0.5,0.5-0.5h3.2c0.3,0,0.5,0.2,0.5,0.5v1.5
	C569.1,278.2,568.9,278.4,568.6,278.4z"/>
<path class="st2" d="M560.2,278.4H557c-0.3,0-0.5-0.2-0.5-0.5v-1.5c0-0.3,0.2-0.5,0.5-0.5h3.2c0.3,0,0.5,0.2,0.5,0.5v1.5
	C560.7,278.2,560.5,278.4,560.2,278.4z"/>
<path class="st2" d="M551.9,278.4h-3.2c-0.3,0-0.5-0.2-0.5-0.5v-1.5c0-0.3,0.2-0.5,0.5-0.5h3.2c0.3,0,0.5,0.2,0.5,0.5v1.5
	C552.3,278.2,552.1,278.4,551.9,278.4z"/>
<path class="st2" d="M543.5,278.4h-3.2c-0.3,0-0.5-0.2-0.5-0.5v-1.5c0-0.3,0.2-0.5,0.5-0.5h3.2c0.3,0,0.5,0.2,0.5,0.5v1.5
	C544,278.2,543.7,278.4,543.5,278.4z"/>
<path class="st2" d="M535.1,278.4h-3.2c-0.3,0-0.5-0.2-0.5-0.5v-1.5c0-0.3,0.2-0.5,0.5-0.5h3.2c0.3,0,0.5,0.2,0.5,0.5v1.5
	C535.6,278.2,535.4,278.4,535.1,278.4z"/>
<path class="st2" d="M526.7,278.4h-3.2c-0.3,0-0.5-0.2-0.5-0.5v-1.5c0-0.3,0.2-0.5,0.5-0.5h3.2c0.3,0,0.5,0.2,0.5,0.5v1.5
	C527.2,278.2,527,278.4,526.7,278.4z"/>
<path class="st2" d="M518.3,278.4h-3.2c-0.3,0-0.5-0.2-0.5-0.5v-1.5c0-0.3,0.2-0.5,0.5-0.5h3.2c0.3,0,0.5,0.2,0.5,0.5v1.5
	C518.8,278.2,518.6,278.4,518.3,278.4z"/>
<path class="st2" d="M510,278.4h-3.2c-0.3,0-0.5-0.2-0.5-0.5v-1.5c0-0.3,0.2-0.5,0.5-0.5h3.2c0.3,0,0.5,0.2,0.5,0.5v1.5
	C510.5,278.2,510.2,278.4,510,278.4z"/>
<path class="st2" d="M501.6,278.4h-3.2c-0.3,0-0.5-0.2-0.5-0.5v-1.5c0-0.3,0.2-0.5,0.5-0.5h3.2c0.3,0,0.5,0.2,0.5,0.5v1.5
	C502.1,278.2,501.9,278.4,501.6,278.4z"/>
<path class="st2" d="M587,283.4h-32.5c-0.3,0-0.5-0.2-0.5-0.5v-1.5c0-0.3,0.2-0.5,0.5-0.5H587c0.3,0,0.5,0.2,0.5,0.5v1.5
	C587.5,283.2,587.3,283.4,587,283.4z"/>
<path class="st4" d="M517.2,198.7h2.8c0.9,0,1.6,0.7,1.6,1.6v0c0,0.9-0.7,1.6-1.6,1.6h-2.8c-0.9,0-1.6-0.7-1.6-1.6v0
	C515.6,199.4,516.3,198.7,517.2,198.7z"/>
<path class="st4" d="M549.7,198.7h2.8c0.9,0,1.6,0.7,1.6,1.6v0c0,0.9-0.7,1.6-1.6,1.6h-2.8c-0.9,0-1.6-0.7-1.6-1.6v0
	C548.2,199.4,548.9,198.7,549.7,198.7z"/>
<path class="st4" d="M558.9,198.7h2.8c0.9,0,1.6,0.7,1.6,1.6v0c0,0.9-0.7,1.6-1.6,1.6h-2.8c-0.9,0-1.6-0.7-1.6-1.6v0
	C557.4,199.4,558.1,198.7,558.9,198.7z"/>
<path class="st4" d="M526,198.5h17.7c0.9,0,1.6,0.7,1.6,1.6v0c0,0.9-0.7,1.6-1.6,1.6H526c-0.9,0-1.6-0.7-1.6-1.6v0
	C524.5,199.2,525.2,198.5,526,198.5z"/>
<path class="st4" d="M569.4,198.5h17.7c0.9,0,1.6,0.7,1.6,1.6v0c0,0.9-0.7,1.6-1.6,1.6h-17.7c-0.9,0-1.6-0.7-1.6-1.6v0
	C567.8,199.2,568.5,198.5,569.4,198.5z"/>
<path class="st4" d="M525.9,205.8h2.8c0.9,0,1.6,0.7,1.6,1.6v0c0,0.9-0.7,1.6-1.6,1.6h-2.8c-0.9,0-1.6-0.7-1.6-1.6v0
	C524.3,206.5,525,205.8,525.9,205.8z"/>
<path class="st4" d="M558.4,205.8h2.8c0.9,0,1.6,0.7,1.6,1.6v0c0,0.9-0.7,1.6-1.6,1.6h-2.8c-0.9,0-1.6-0.7-1.6-1.6v0
	C556.8,206.5,557.5,205.8,558.4,205.8z"/>
<path class="st4" d="M567.6,205.8h2.8c0.9,0,1.6,0.7,1.6,1.6v0c0,0.9-0.7,1.6-1.6,1.6h-2.8c-0.9,0-1.6-0.7-1.6-1.6v0
	C566,206.5,566.7,205.8,567.6,205.8z"/>
<path class="st4" d="M534.7,205.5h17.7c0.9,0,1.6,0.7,1.6,1.6v0c0,0.9-0.7,1.6-1.6,1.6h-17.7c-0.9,0-1.6-0.7-1.6-1.6v0
	C533.2,206.2,533.8,205.5,534.7,205.5z"/>
<path class="st4" d="M578.1,205.5h17.7c0.9,0,1.6,0.7,1.6,1.6v0c0,0.9-0.7,1.6-1.6,1.6h-17.7c-0.9,0-1.6-0.7-1.6-1.6v0
	C576.5,206.2,577.2,205.5,578.1,205.5z"/>
<path class="st4" d="M534.5,212.8h2.8c0.9,0,1.6,0.7,1.6,1.6v0c0,0.9-0.7,1.6-1.6,1.6h-2.8c-0.9,0-1.6-0.7-1.6-1.6v0
	C533,213.5,533.7,212.8,534.5,212.8z"/>
<path class="st4" d="M567.1,212.8h2.8c0.9,0,1.6,0.7,1.6,1.6v0c0,0.9-0.7,1.6-1.6,1.6h-2.8c-0.9,0-1.6-0.7-1.6-1.6v0
	C565.5,213.5,566.2,212.8,567.1,212.8z"/>
<path class="st4" d="M576.3,212.8h2.8c0.9,0,1.6,0.7,1.6,1.6v0c0,0.9-0.7,1.6-1.6,1.6h-2.8c-0.9,0-1.6-0.7-1.6-1.6v0
	C574.7,213.5,575.4,212.8,576.3,212.8z"/>
<path class="st4" d="M543.4,212.6h17.7c0.9,0,1.6,0.7,1.6,1.6v0c0,0.9-0.7,1.6-1.6,1.6h-17.7c-0.9,0-1.6-0.7-1.6-1.6v0
	C541.8,213.3,542.5,212.6,543.4,212.6z"/>
<path class="st4" d="M586.7,212.6h17.7c0.9,0,1.6,0.7,1.6,1.6v0c0,0.9-0.7,1.6-1.6,1.6h-17.7c-0.9,0-1.6-0.7-1.6-1.6v0
	C585.2,213.3,585.9,212.6,586.7,212.6z"/>
<path class="st4" d="M543.2,219.9h2.8c0.9,0,1.6,0.7,1.6,1.6v0c0,0.9-0.7,1.6-1.6,1.6h-2.8c-0.9,0-1.6-0.7-1.6-1.6v0
	C541.6,220.6,542.3,219.9,543.2,219.9z"/>
<path class="st4" d="M575.7,219.9h2.8c0.9,0,1.6,0.7,1.6,1.6v0c0,0.9-0.7,1.6-1.6,1.6h-2.8c-0.9,0-1.6-0.7-1.6-1.6v0
	C574.2,220.6,574.9,219.9,575.7,219.9z"/>
<path class="st4" d="M584.9,219.9h2.8c0.9,0,1.6,0.7,1.6,1.6v0c0,0.9-0.7,1.6-1.6,1.6h-2.8c-0.9,0-1.6-0.7-1.6-1.6v0
	C583.4,220.6,584.1,219.9,584.9,219.9z"/>
<path class="st4" d="M552.1,219.6h17.7c0.9,0,1.6,0.7,1.6,1.6v0c0,0.9-0.7,1.6-1.6,1.6h-17.7c-0.9,0-1.6-0.7-1.6-1.6v0
	C550.5,220.3,551.2,219.6,552.1,219.6z"/>
<path class="st4" d="M549.7,247.9h2.8c0.9,0,1.6,0.7,1.6,1.6v0c0,0.9-0.7,1.6-1.6,1.6h-2.8c-0.9,0-1.6-0.7-1.6-1.6v0
	C548.2,248.6,548.9,247.9,549.7,247.9z"/>
<path class="st4" d="M558.9,247.9h2.8c0.9,0,1.6,0.7,1.6,1.6v0c0,0.9-0.7,1.6-1.6,1.6h-2.8c-0.9,0-1.6-0.7-1.6-1.6v0
	C557.4,248.6,558.1,247.9,558.9,247.9z"/>
<path class="st4" d="M569.4,248.2h17.7c0.9,0,1.6,0.7,1.6,1.6v0c0,0.9-0.7,1.6-1.6,1.6h-17.7c-0.9,0-1.6-0.7-1.6-1.6v0
	C567.8,248.9,568.5,248.2,569.4,248.2z"/>
<path class="st4" d="M517.2,247.9h2.8c0.9,0,1.6,0.7,1.6,1.6v0c0,0.9-0.7,1.6-1.6,1.6h-2.8c-0.9,0-1.6-0.7-1.6-1.6v0
	C515.6,248.6,516.3,247.9,517.2,247.9z"/>
<path class="st4" d="M526,248.2h17.7c0.9,0,1.6,0.7,1.6,1.6v0c0,0.9-0.7,1.6-1.6,1.6H526c-0.9,0-1.6-0.7-1.6-1.6v0
	C524.5,248.9,525.2,248.2,526,248.2z"/>
<path class="st4" d="M525.9,240.9h2.8c0.9,0,1.6,0.7,1.6,1.6v0c0,0.9-0.7,1.6-1.6,1.6h-2.8c-0.9,0-1.6-0.7-1.6-1.6v0
	C524.3,241.5,525,240.9,525.9,240.9z"/>
<path class="st4" d="M558.4,240.9h2.8c0.9,0,1.6,0.7,1.6,1.6v0c0,0.9-0.7,1.6-1.6,1.6h-2.8c-0.9,0-1.6-0.7-1.6-1.6v0
	C556.8,241.5,557.5,240.9,558.4,240.9z"/>
<path class="st4" d="M567.6,240.9h2.8c0.9,0,1.6,0.7,1.6,1.6v0c0,0.9-0.7,1.6-1.6,1.6h-2.8c-0.9,0-1.6-0.7-1.6-1.6v0
	C566,241.5,566.7,240.9,567.6,240.9z"/>
<path class="st4" d="M534.7,241.1h17.7c0.9,0,1.6,0.7,1.6,1.6v0c0,0.9-0.7,1.6-1.6,1.6h-17.7c-0.9,0-1.6-0.7-1.6-1.6v0
	C533.2,241.8,533.8,241.1,534.7,241.1z"/>
<path class="st4" d="M534.5,233.8h2.8c0.9,0,1.6,0.7,1.6,1.6v0c0,0.9-0.7,1.6-1.6,1.6h-2.8c-0.9,0-1.6-0.7-1.6-1.6v0
	C533,234.5,533.7,233.8,534.5,233.8z"/>
<path class="st4" d="M567.1,233.8h2.8c0.9,0,1.6,0.7,1.6,1.6v0c0,0.9-0.7,1.6-1.6,1.6h-2.8c-0.9,0-1.6-0.7-1.6-1.6v0
	C565.5,234.5,566.2,233.8,567.1,233.8z"/>
<path class="st4" d="M576.3,233.8h2.8c0.9,0,1.6,0.7,1.6,1.6v0c0,0.9-0.7,1.6-1.6,1.6h-2.8c-0.9,0-1.6-0.7-1.6-1.6v0
	C574.7,234.5,575.4,233.8,576.3,233.8z"/>
<path class="st4" d="M543.4,234.1h17.7c0.9,0,1.6,0.7,1.6,1.6v0c0,0.9-0.7,1.6-1.6,1.6h-17.7c-0.9,0-1.6-0.7-1.6-1.6v0
	C541.8,234.8,542.5,234.1,543.4,234.1z"/>
<path class="st4" d="M543.2,226.8h2.8c0.9,0,1.6,0.7,1.6,1.6v0c0,0.9-0.7,1.6-1.6,1.6h-2.8c-0.9,0-1.6-0.7-1.6-1.6v0
	C541.6,227.5,542.3,226.8,543.2,226.8z"/>
<path class="st4" d="M575.7,226.8h2.8c0.9,0,1.6,0.7,1.6,1.6v0c0,0.9-0.7,1.6-1.6,1.6h-2.8c-0.9,0-1.6-0.7-1.6-1.6v0
	C574.2,227.5,574.9,226.8,575.7,226.8z"/>
<path class="st4" d="M584.9,226.8h2.8c0.9,0,1.6,0.7,1.6,1.6v0c0,0.9-0.7,1.6-1.6,1.6h-2.8c-0.9,0-1.6-0.7-1.6-1.6v0
	C583.4,227.5,584.1,226.8,584.9,226.8z"/>
<path class="st4" d="M552.1,227h17.7c0.9,0,1.6,0.7,1.6,1.6v0c0,0.9-0.7,1.6-1.6,1.6h-17.7c-0.9,0-1.6-0.7-1.6-1.6v0
	C550.5,227.7,551.2,227,552.1,227z"/>
<path class="st5" d="M504.9,330.5l-13.3-21.1l41.9-33.4l17.3-19.2c7.1-7.9,19.2-8.5,27.1-1.4c2.5,2.2,4.3,5.1,5.4,8.2l0,0
	c3.2,9.8-1.9,20.4-11.6,24l-27.3,10.1L504.9,330.5z"/>
<path class="st2" d="M191.7,177.5V280h71.9V177.5c0-1.5-1-2.9-2.4-3.3c-0.3-0.1-0.7-0.2-1-0.2h-64.9
	C193.2,174,191.7,175.6,191.7,177.5C191.7,177.5,191.7,177.5,191.7,177.5z M219.7,212.7c0-4.2,3.5-7.6,7.7-7.6
	c4.2,0,7.6,3.4,7.6,7.6v11.9c0,4.2-3.5,7.7-7.7,7.6c-4.2,0-7.6-3.4-7.6-7.6V212.7z"/>
<path class="st2" d="M191.5,276.8v9.9c0,1.1,0.9,1.9,1.9,1.9h68.4c1.1,0,1.9-0.9,1.9-1.9v-9.9H191.5z"/>
<path class="st3" d="M78.7,23v187.3c0,5,4,9,9,9h277.5c5,0,9-4,9-9V23c0-5-4-9-9-9H87.7C82.7,14,78.7,18,78.7,23z"/>
<path class="st4" d="M85.2,25.3v182.6c0,2.7,2.2,4.8,4.8,4.8h272.9c2.7,0,4.8-2.2,4.8-4.8V25.3c0-2.7-2.2-4.8-4.8-4.8H90
	C87.3,20.5,85.2,22.6,85.2,25.3z"/>
<path class="st3" d="M135.8,287.9c0.6,0.7,1.4,1.1,2.3,1.1h162.3c1.6,0,3-1.3,3-3c0-0.2,0-0.4-0.1-0.6l-2.5-12
	c-0.2-1-0.9-1.8-1.9-2.2c-0.3-0.1-0.7-0.2-1.1-0.2H140.6c-0.4,0-0.7,0.1-1.1,0.2c-0.9,0.4-1.6,1.2-1.9,2.2l-2.5,12
	C135,286.3,135.2,287.2,135.8,287.9z"/>
<path class="st2" d="M354,45.6H98.7c-0.6,0-1-0.5-1-1c0-0.5,0.4-1,1-1H354c0.6,0,1,0.5,1,1C355,45.2,354.5,45.6,354,45.6z"/>
<ellipse class="st2" cx="116.1" cy="32.3" rx="6" ry="6.1"/>
<ellipse class="st2" cx="136.6" cy="32.3" rx="6" ry="6.1"/>
<ellipse class="st2" cx="157.2" cy="32.3" rx="6" ry="6.1"/>
<path class="st2" d="M341.6,27.8H327c-0.6,0-1.1,0.5-1.1,1.1c0,0.6,0.5,1.1,1.1,1.1h14.6c0.6,0,1.1-0.5,1.1-1.1
	C342.7,28.2,342.2,27.8,341.6,27.8z"/>
<path class="st2" d="M341.6,31.9H327c-0.6,0-1.1,0.5-1.1,1.1c0,0.6,0.5,1.1,1.1,1.1h14.6c0.6,0,1.1-0.5,1.1-1.1
	C342.7,32.4,342.2,31.9,341.6,31.9z"/>
<path class="st2" d="M341.6,36.1H327c-0.6,0-1.1,0.5-1.1,1.1c0,0.6,0.5,1.1,1.1,1.1h14.6c0.6,0,1.1-0.5,1.1-1.1
	C342.7,36.5,342.2,36.1,341.6,36.1z"/>
<path class="st3" d="M693.6,281.1c0.9,2.6,3.4,4.4,6.2,4.3l26.5-0.7c2.8-0.1,5.2-2,6-4.7L736,240c1.3,0.6,2.8,0.9,4.2,0.9
	c5.3-0.1,9.5-4.6,9.4-9.9s-4.6-9.5-9.9-9.4c-0.6,0-1.2,0.1-1.7,0.2c-1.3-1.4-3-2.1-4.9-2.1l-40.8,1.1c-0.3,0-0.7,0.1-1,0.1
	c-3.5,0.6-5.7,4-5.1,7.4c0.1,0.3,0.1,0.6,0.2,0.8L693.6,281.1z M736.8,237.3l2.7-9.6c0.3-1.1,0.3-2.3,0-3.4c0.1,0,0.2-0.1,0.4-0.1
	c3.8-0.1,7,3,7.1,6.8c0.1,3.8-2.9,7-6.7,7.1C739,238.1,737.8,237.9,736.8,237.3z"/>
<path class="st2" d="M691.4,220.8c0.9,5,10.6,8.5,22.4,7.8c10.8-0.5,19.6-4.3,21.2-8.8c-0.6-0.2-1.2-0.3-1.8-0.2l-40.8,1.1
	C692.1,220.7,691.7,220.7,691.4,220.8z"/>
<path class="st2" d="M715.9,259.1c0.1,0,0.1,0,0.2-0.1l5.8-3.8c0.2-0.2,0.3-0.5,0.1-0.7c0-0.1-0.1-0.1-0.1-0.1l-6-3.9
	c-0.2-0.2-0.5-0.1-0.7,0.1s-0.1,0.5,0.1,0.7l5.3,3.5l-5.1,3.3c-0.2,0.2-0.3,0.5-0.1,0.7C715.5,259,715.7,259.1,715.9,259.1
	L715.9,259.1z"/>
<path class="st2" d="M706.8,259.5c0.3-0.1,0.4-0.3,0.4-0.6c0-0.1-0.1-0.2-0.2-0.3l-5.3-3l5.1-3.8c0.2-0.2,0.3-0.5,0.1-0.7
	s-0.5-0.3-0.7-0.1l-5.7,4.3c-0.2,0.2-0.3,0.5-0.1,0.7c0,0.1,0.1,0.1,0.2,0.1l6,3.4C706.6,259.5,706.7,259.5,706.8,259.5z"/>
<path class="st2" d="M715.3,262.4c0,0,0.1,0,0.1-0.1c0.2-0.1,0.3-0.5,0.2-0.7c0,0,0,0,0,0l-8.2-13.4c-0.1-0.2-0.5-0.3-0.7-0.2
	s-0.3,0.5-0.2,0.7l8.2,13.4C714.9,262.3,715.1,262.4,715.3,262.4z"/>
<path class="st2" d="M212.6,100.8h44.2c1.8,0,3.3,1.5,3.3,3.3v4.3c0,1.8-1.5,3.3-3.3,3.3h-44.2c-1.8,0-3.3-1.5-3.3-3.3v-4.3
	C209.4,102.3,210.8,100.8,212.6,100.8z"/>
<path class="st6" d="M186.9,122.5h95.7c1.8,0,3.3,1.5,3.3,3.3v4.3c0,1.8-1.5,3.3-3.3,3.3h-95.7c-1.8,0-3.3-1.5-3.3-3.3v-4.3
	C183.6,124,185.1,122.5,186.9,122.5z"/>
<path class="st6" d="M186.9,144.2h95.7c1.8,0,3.3,1.5,3.3,3.3v4.3c0,1.8-1.5,3.3-3.3,3.3h-95.7c-1.8,0-3.3-1.5-3.3-3.3v-4.3
	C183.6,145.7,185.1,144.2,186.9,144.2z"/>
<path class="st2" d="M290.7,216.5l0.2,0.7l0,0l6.5,19.7l7.5,22.7l14.1,42.7l0.1,6.6v0l1,53.4l-2.9,7.2l3.3,11.9
	c0,0-1.5-17.9-9.6-7.6c-4.6,5.9-9.9,11.8-14.3,17.5c6.4,2.6,12.9,4.9,19.5,7c1.4,0.5,2.9,0.9,4.3,1.3c0.3,0.1,0.6,0.2,0.9,0.3
	c21.9,6.4,44.5,10.1,67.4,10.8c1.2,0,2.3,0.1,3.5,0.1c0.4,0,0.8,0,1.2,0c1.3,0,2.5,0,3.8,0c2.6,0,5.1,0,7.7-0.1
	c18.9-0.5,37.7-3.1,56.1-7.5c-0.1-7.5-0.5-16.4-1-25.8c-0.2-4.6-5.4-9.6-5.7-14.5c-0.2-3.6,4.4-7,4.1-10.7
	c-1.6-22.7-3.5-14-4.9-30.1c-0.1-1.6-0.3-3.1-0.4-4.5c-0.9-10.3-1.6-16.8-1.6-16.8l6.1-38.5l9.6-60.4l-0.7-1.2l-0.8-0.4l-50.8-25
	l-2.8-7c-1.6-4.1-5.7-6.9-10.1-6.9l-33.5-0.1c-3.5,0-6.8,1.7-8.9,4.5l-9.1,12.5L290.7,216.5z"/>
<path class="st2" d="M326.8,293.7l-7.6,16.2l-5.2,11.1l-8.9,46.6l-4.5,4.7l-3.8-16.8l-39.2,8.7c-1.3-7.3-0.9,0.4-1.7-7.6
	c0.2-0.2,0.2-0.4,0.4-0.6c0.6-0.6,1.2-1.2,1.2-1.7c-0.5-27.6,0.9-74.5,12.3-103c1.8-4.6,4.2-9,7-13.1c0.2-0.3,0.4-0.6,0.7-0.9
	c5.3-7.4,8.6-14.6,13.3-19.8v0c0,0,0.1-0.1,0.1-0.1c0,0,0,0,0,0l32.4-17.2l1.4,39.1l1,28.1L326.8,293.7z"/>
<path class="st2" d="M443.8,298.3l9.5,20.3l3.3,7.1l8.9,46.6l4.4,4.7l3.8-16.8l1.8-0.4l32.5-6.7l9.5,30c4.4-7.3,3-16.7-3.3-22.5
	c-0.6-0.6-1.2-1.2-1.2-1.7c0.5-32.4-1.4-91.7-19.4-116.1c-5.7-7.7-9.1-15.4-14.1-20.8c0,0,0,0,0,0l-12.1-19.8l-0.7-1.2l-0.8-0.4
	L443.8,298.3z"/>
<circle id="a657ec4b-47ce-4d2a-9c58-81a811696ca9" class="st5" cx="386.4" cy="107.2" r="44.6"/>
<path class="st3" d="M446.6,76.1c-0.7-0.7-1.7-1.2-2.7-1.2l0.7-1.9c0.7-1.8-0.2-3.9-2.1-4.5c-0.6-0.2-1.3-0.3-1.9-0.2l-2.4,0.5
	l0.2-1.6c0.3-1.9-1.1-3.7-3-4c-0.6-0.1-1.2,0-1.7,0.2c-1.1,0.4-2.3,0.3-3.2-0.2c-1-0.5-1.7-1.5-1.9-2.6l-0.8-4.1l-0.1-0.2
	c-4.1-6.9-12.1-11.9-21.8-13.8c-8.7-1.6-17.6-0.8-26.1,0c-3.4,0.3-7.2,0.7-10.4,2.6c-2.7,1.7-5,5-4.5,8.4c-8.5-2.6-17.5,2.6-22,9.1
	c-5.3,7.8-6.2,17.5-6.3,25.1c-0.4,18,3.3,32.7,11,43.7c0.6,0.8,0.7,2.5,1.8,3l-0.2-0.4c1.2,0.6,2.5,1.6,2,2.7
	c-1.3,3.1,7.6,9.9,13.9,12.1c11.5,4.1,26.9,3.8,37.6,2.3l0.4-2.5c3.9-0.5,6.6-1.5,7.4-3.1c1.4-1.2,2.5-2.2,3.5-3.2l0,0
	c0,0,0.1,0,0.1-0.1c4.9-4.7,6-7.3,6.5-11.4c0.5-4-0.4-8-1.3-11.6c18.7,2.9-7.4-20,10.1-24.4c0.2-0.1,0.4-0.1,0.6-0.1
	c0.5-0.1,1-0.2,1.5-0.4c2.4-0.6,4.6-1.6,6.7-2.9c4.9-3,6.5-6.9,9-11.4C447.8,78.8,447.6,77.2,446.6,76.1z"/>
<path class="st3" d="M544,301.4c0,1.8,0,4.2-0.1,7.2c0,0.4,0,0.8,0,1.3c-0.1,5.6-0.3,10.2-0.5,15.4c0,0.4,0,0.7,0,1.1
	c-0.3,7.2-0.7,15.7-1.5,29c-1.4,24.7-3.9,3.4-6.3,12c-0.1,0.4-0.2,0.9-0.4,1.5c-0.4,2.2-1,4.3-1.9,6.3c-1.3,0.8-2.7,1.5-4,2.3
	c-3.8,2.1-7.6,4.1-11.5,6.1c-2.2,1.1-4.4,2.1-6.6,3.2c-0.3,0.2-0.7,0.3-1,0.5c-11.3,5.2-22.9,9.6-34.8,13.3c-2.3,0.7-4.6,1.4-7,2
	c-2.4,0.7-4.9,1.3-7.3,1.9c-18.4,4.5-37.2,7.1-56.1,7.6c-2.5,0.1-5.1,0.1-7.7,0.1c-1.3,0-2.5,0-3.8,0c-0.4,0-0.8,0-1.2,0
	c-1.1,0-2.3,0-3.5-0.1c-22.8-0.7-45.5-4.4-67.3-10.8l-0.9-0.3c-1.4-0.4-2.9-0.9-4.3-1.3c-6.6-2.1-13.1-4.4-19.5-7
	c-4.9-2-9.7-4.1-14.5-6.3c0,0-0.1,0-0.1-0.1c-1-0.5-2-0.9-3-1.4c-0.1-0.1-0.3-0.1-0.4-0.2c-3.7-1.8-7.4-3.7-11.1-5.7
	c-3.1-7.1-7.4-8.4-10.1-14.6c-0.8-1.8-1.7-5.8-1.7-5.8c0.3,3.7,0-0.3,0-0.4c0-0.4-0.1-0.8-0.1-1.3c-3.4-33.5-3.2-71.8-4.7-103.3
	c-0.1-2-0.2-4-0.3-5.9c0-0.6-0.1-1.2-0.1-1.8c0.1-0.2,0.1-0.4,0.2-0.5c0-0.1,0-0.1,0.1-0.2c0-0.1,0.1-0.1,0.1-0.2c0,0,0-0.1,0.1-0.1
	c0,0,0-0.1,0-0.1c0.1-0.1,0.2-0.3,0.3-0.4c0-0.1,0.1-0.1,0.1-0.2c0-0.1,0.1-0.1,0.1-0.1c0,0,0.1-0.1,0.1-0.1c0,0,0.1-0.1,0.1-0.1
	c0,0,0-0.1,0.1-0.1c0.1-0.1,0.2-0.2,0.3-0.2c0.4-0.3,0.7-0.6,1.1-0.9c0.1-0.1,0.3-0.2,0.4-0.3c1-0.6,2.1-1.1,3.2-1.5
	c0.4-0.1,0.8-0.3,1.2-0.4c0.1,0,0.3-0.1,0.4-0.1c0.2-0.1,0.4-0.1,0.7-0.2c1.1-0.3,2.4-0.6,3.7-0.9c0.2,0,0.3-0.1,0.5-0.1
	c0.2,0,0.5-0.1,0.7-0.1c0.3-0.1,0.7-0.1,1-0.2c3-0.5,6.3-0.8,10.1-1c0.4,0,0.7,0,1-0.1c0.4,0,0.8,0,1.2-0.1c0.4,0,0.7,0,1.1,0
	c0.4,0,0.7,0,1.1,0c1,0,2-0.1,3.1-0.1c3-0.1,6.2,0,9.5,0c1.5,0,3.1,0.1,4.8,0.2c0.1,0,0.2,0,0.3,0c1.4,0,2.8,0.1,4.3,0.2
	c1,0,2,0.1,3.1,0.2c1,0.1,1.9,0.1,2.9,0.2c0.8,0,1.5,0.1,2.3,0.2c0.7,0,1.3,0.1,2,0.1l0.9,0.1c0.5,0,1,0.1,1.5,0.1
	c1.1,0.1,2.2,0.2,3.3,0.3c1.1,0.1,2.2,0.2,3.4,0.3s2.3,0.2,3.4,0.3c0.1,0,0.2,0,0.3,0c1,0.1,2.1,0.2,3.1,0.3c0.2,0,0.5,0,0.7,0.1
	c1,0.1,2,0.2,3,0.3c0.3,0,0.6,0.1,0.9,0.1c0.8,0.1,1.6,0.2,2.4,0.3c1,0.1,2.1,0.2,3.2,0.4c0.8,0.1,1.6,0.2,2.4,0.3
	c1.3,0.2,2.6,0.3,3.8,0.5c0.5,0.1,1,0.1,1.5,0.2c3.7,0.5,7.4,1,11.2,1.5c5.7,0.8,11.5,1.7,17.4,2.6c5.9,1,11.8,2,17.7,3
	c1.5,0.3,3,0.5,4.5,0.8c0.7,0.1,1.4,0.3,2,0.4c1.2,0.2,2.3,0.4,3.5,0.7c1.2,0.2,2.3,0.4,3.5,0.7c1.4,0.3,2.8,0.5,4.2,0.8
	c9.1,1.8,18.1,3.7,27,5.7c1.5,0.3,2.9,0.7,4.3,1c2.9,0.7,5.7,1.3,8.6,2c0.8,0.2,1.5,0.4,2.3,0.6c1.9,0.5,3.8,1,5.7,1.5l0.3,0.1
	c1.4,0.3,2.8,0.7,4.1,1c3.2,0.8,6.4,1.7,9.5,2.5c2.1,0.6,4.1,1.1,6.1,1.7c3,0.9,6,1.8,8.8,2.6c0.7,0.2,1.4,0.4,2.1,0.7
	c2.1,0.7,4.2,1.3,6.2,2c1.6,0.5,3.2,1,4.7,1.6c1.5,0.5,3,1.1,4.5,1.6c1,0.3,1.9,0.7,2.8,1c1.3,0.5,2.7,1,4,1.5
	c0.4,0.2,0.8,0.3,1.2,0.5c0.2,0.1,0.5,0.2,0.7,0.3c0.5,0.2,1,0.4,1.4,0.6c0.5,0.2,0.9,0.4,1.4,0.6c0.5,0.2,0.9,0.4,1.3,0.6
	c0.5,0.2,0.9,0.4,1.3,0.6c0.4,0.2,0.7,0.3,1.1,0.5c0.7,0.3,1.4,0.6,2.1,0.9c0.3,0.2,0.7,0.3,1,0.5l0.8,0.4c0.1,0.1,0.2,0.1,0.3,0.2
	c0.2,0.1,0.5,0.2,0.8,0.4c0.6,0.3,1.2,0.6,1.7,0.8c0.8,0.4,1.5,0.8,2.2,1.1c0.7,0.4,1.4,0.8,2.1,1.1c0.1,0.1,0.2,0.1,0.3,0.2
	c0.2,0.1,0.3,0.2,0.5,0.2c0.5,0.3,1,0.6,1.5,0.9c1,0.6,1.9,1.2,2.7,1.8c0.2,0.1,0.4,0.3,0.6,0.4c0.6,0.5,1.2,0.9,1.8,1.3
	c0,0,0,0,0,0c0.2,0.1,0.4,0.3,0.5,0.4c0.2,0.1,0.3,0.3,0.5,0.4c0.5,0.5,1,0.9,1.4,1.3c0.1,0.1,0.3,0.3,0.4,0.4
	c0.1,0,0.1,0.1,0.2,0.2c0.2,0.2,0.4,0.4,0.5,0.6c0,0,0,0.1,0.1,0.1c0.2,0.3,0.5,0.6,0.7,0.8c0.1,0.1,0.2,0.3,0.3,0.4
	c0.1,0.2,0.2,0.3,0.3,0.5c0.1,0.1,0.2,0.3,0.2,0.4c0.2,0.4,0.4,0.7,0.5,1.1c0.1,0.3,0.2,0.5,0.3,0.8
	C543.9,300.9,544,301.2,544,301.4z"/>
<path class="st7" d="M544,301.4c0,1.8,0,4.2-0.1,7.2c0,0.4,0,0.8,0,1.3c-0.1,4.2-0.2,9.5-0.5,15.4c0,0.4,0,0.7,0,1.1
	c-0.3,7.2-0.7,15.7-1.5,29c-1.4,24.7-3.9,3.4-6.3,12c-6.9-4.2-14.4-8.6-22.4-13.2c-1.4-0.8-2.9-1.6-4.4-2.5
	c-16.1-9-34-18.4-52.8-27.7c-0.7-0.4-1.5-0.7-2.2-1.1c-43-21.2-89.8-41.9-127.8-55.7c-7.3-2.7-14.3-5.1-20.9-7.2
	c-13.9-4.4-25.8-7.5-35.1-8.9c-9.6-1.4-16.2-0.9-18.9,2c-0.1-2-0.2-4-0.3-5.9c0-0.6-0.1-1.2-0.1-1.8c0.1-0.2,0.1-0.3,0.2-0.5
	c0,0,0,0,0-0.1c0-0.1,0-0.1,0.1-0.2c0-0.1,0.1-0.1,0.1-0.2c0-0.1,0.1-0.1,0.1-0.2c0.1-0.1,0.2-0.3,0.3-0.4c0.1-0.1,0.2-0.2,0.3-0.3
	c0,0,0.1-0.1,0.1-0.1c0,0,0.1-0.1,0.1-0.1c0,0,0-0.1,0.1-0.1c0.1-0.1,0.2-0.2,0.3-0.2c0.4-0.3,0.7-0.6,1.1-0.9
	c0.1-0.1,0.3-0.2,0.4-0.3c1-0.6,2.1-1.1,3.2-1.5c0.4-0.1,0.8-0.3,1.2-0.4c0.1,0,0.3-0.1,0.4-0.1c0.2-0.1,0.4-0.1,0.7-0.2
	c1.1-0.3,2.4-0.6,3.7-0.9c0.4-0.1,0.8-0.2,1.2-0.2c0.3-0.1,0.7-0.1,1-0.2c3-0.5,6.3-0.8,10.1-1c0.4,0,0.7,0,1-0.1
	c0.4,0,0.8,0,1.2-0.1c0.4,0,0.7,0,1.1,0c0.4,0,0.7,0,1.1,0c1,0,2-0.1,3.1-0.1c3,0,6.2,0,9.5,0c1.5,0,3.1,0.1,4.8,0.2
	c0.1,0,0.2,0,0.3,0c1.4,0,2.8,0.1,4.3,0.2c1,0,2,0.1,3.1,0.2c1,0.1,1.9,0.1,2.9,0.2c0.8,0,1.5,0.1,2.3,0.2c0.7,0,1.3,0.1,2,0.1
	c0.8,0.1,1.6,0.1,2.4,0.2c1.1,0.1,2.2,0.2,3.3,0.3c1.1,0.1,2.2,0.2,3.4,0.3s2.3,0.2,3.4,0.3c0.1,0,0.2,0,0.3,0
	c1,0.1,2.1,0.2,3.1,0.3c5.8,0.6,11.8,1.3,18,2.1c3.7,0.5,7.4,1,11.2,1.5c5.7,0.8,11.5,1.7,17.4,2.6c5.9,1,11.8,2,17.7,3
	c1.5,0.3,3,0.5,4.5,0.8c1.8,0.3,3.7,0.7,5.5,1c1.2,0.2,2.3,0.4,3.5,0.7c1.4,0.3,2.8,0.5,4.2,0.8c9.1,1.8,18.1,3.7,27,5.7
	c1.5,0.3,2.9,0.7,4.3,1c2.9,0.7,5.7,1.3,8.6,2c0.8,0.2,1.5,0.4,2.3,0.6c1.9,0.5,3.8,1,5.7,1.4v0c0.1,0,0.2,0,0.3,0.1
	c1.4,0.3,2.8,0.7,4.1,1.1c3.2,0.8,6.4,1.7,9.5,2.5c2.1,0.6,4.1,1.2,6.1,1.7c3,0.9,6,1.8,8.8,2.6c0.7,0.2,1.4,0.4,2.1,0.7
	c2.1,0.7,4.2,1.3,6.2,2c1.6,0.5,3.2,1,4.7,1.6c1.5,0.5,3,1.1,4.5,1.6c1,0.3,1.9,0.7,2.8,1c1.4,0.5,2.7,1,4,1.5
	c0.4,0.2,0.8,0.3,1.2,0.5c0.7,0.3,1.4,0.6,2.1,0.9c0.5,0.2,0.9,0.4,1.4,0.6c0.5,0.2,0.9,0.4,1.3,0.6c0.5,0.2,0.9,0.4,1.3,0.6
	c0.4,0.2,0.7,0.3,1.1,0.5c0.7,0.3,1.4,0.6,2.1,0.9c0.3,0.2,0.7,0.3,1,0.5l0.8,0.4c0.1,0.1,0.2,0.1,0.3,0.2c0.8,0.4,1.7,0.8,2.5,1.2
	c0.8,0.4,1.5,0.8,2.2,1.1c0.8,0.4,1.6,0.9,2.4,1.3c0.2,0.1,0.3,0.2,0.5,0.2c0.5,0.3,1,0.6,1.5,0.9c1,0.6,1.9,1.2,2.7,1.8
	c0.8,0.6,1.6,1.2,2.3,1.7c0,0,0,0,0,0c0.3,0.3,0.7,0.6,1,0.8c0.5,0.5,1,0.9,1.4,1.3c0.1,0.1,0.3,0.3,0.4,0.4c0.1,0,0.1,0.1,0.2,0.2
	c0.2,0.2,0.4,0.5,0.6,0.7c0.2,0.3,0.5,0.6,0.7,0.8c0.1,0.1,0.2,0.3,0.3,0.4c0.1,0.2,0.2,0.3,0.3,0.5c0.1,0.1,0.2,0.3,0.2,0.4
	c0.2,0.4,0.4,0.7,0.5,1.1c0.1,0.3,0.2,0.5,0.3,0.8C543.9,300.9,544,301.2,544,301.4z"/>
</svg>
